<svg width="247" height="121" viewBox="0 0 247 121" fill="none" xmlns="http://www.w3.org/2000/svg">
<ellipse cx="16.0395" cy="15.104" rx="15.0932" ry="15" fill="white"/>
<path d="M45.9246 8.854C49.4024 8.85404 52.2166 11.6552 52.2166 15.104C52.2166 18.5528 49.4024 21.354 45.9246 21.354C42.4467 21.354 39.6326 18.5529 39.6326 15.104C39.6326 11.6551 42.4467 8.854 45.9246 8.854Z" stroke="white"/>
<path d="M6.74229 88.356C5.27829 88.356 4.10829 87.942 3.23229 87.114C2.36829 86.274 1.93629 85.014 1.93629 83.334V80.274C1.93629 78.63 2.36829 77.382 3.23229 76.53C4.10829 75.678 5.27829 75.252 6.74229 75.252C8.21829 75.252 9.38829 75.678 10.2523 76.53C11.1283 77.382 11.5663 78.63 11.5663 80.274V83.334C11.5663 85.014 11.1283 86.274 10.2523 87.114C9.38829 87.942 8.21829 88.356 6.74229 88.356ZM6.74229 86.664C7.73829 86.664 8.47629 86.382 8.95629 85.818C9.43629 85.242 9.67629 84.438 9.67629 83.406V80.166C9.67629 79.134 9.41829 78.342 8.90229 77.79C8.38629 77.226 7.66629 76.944 6.74229 76.944C5.80629 76.944 5.08629 77.232 4.58229 77.808C4.07829 78.372 3.82629 79.158 3.82629 80.166V83.406C3.82629 84.462 4.06629 85.272 4.54629 85.836C5.03829 86.388 5.77029 86.664 6.74229 86.664ZM20.8439 88.356C19.3799 88.356 18.2099 87.942 17.3339 87.114C16.4699 86.274 16.0379 85.014 16.0379 83.334V80.274C16.0379 78.63 16.4699 77.382 17.3339 76.53C18.2099 75.678 19.3799 75.252 20.8439 75.252C22.3199 75.252 23.4899 75.678 24.3539 76.53C25.2299 77.382 25.6679 78.63 25.6679 80.274V83.334C25.6679 85.014 25.2299 86.274 24.3539 87.114C23.4899 87.942 22.3199 88.356 20.8439 88.356ZM20.8439 86.664C21.8399 86.664 22.5779 86.382 23.0579 85.818C23.5379 85.242 23.7779 84.438 23.7779 83.406V80.166C23.7779 79.134 23.5199 78.342 23.0039 77.79C22.4879 77.226 21.7679 76.944 20.8439 76.944C19.9079 76.944 19.1879 77.232 18.6839 77.808C18.1799 78.372 17.9279 79.158 17.9279 80.166V83.406C17.9279 84.462 18.1679 85.272 18.6479 85.836C19.1399 86.388 19.8719 86.664 20.8439 86.664ZM34.9454 88.356C33.4814 88.356 32.3114 87.942 31.4354 87.114C30.5714 86.274 30.1394 85.014 30.1394 83.334V80.274C30.1394 78.63 30.5714 77.382 31.4354 76.53C32.3114 75.678 33.4814 75.252 34.9454 75.252C36.4214 75.252 37.5914 75.678 38.4554 76.53C39.3314 77.382 39.7694 78.63 39.7694 80.274V83.334C39.7694 85.014 39.3314 86.274 38.4554 87.114C37.5914 87.942 36.4214 88.356 34.9454 88.356ZM34.9454 86.664C35.9414 86.664 36.6794 86.382 37.1594 85.818C37.6394 85.242 37.8794 84.438 37.8794 83.406V80.166C37.8794 79.134 37.6214 78.342 37.1054 77.79C36.5894 77.226 35.8694 76.944 34.9454 76.944C34.0094 76.944 33.2894 77.232 32.7854 77.808C32.2814 78.372 32.0294 79.158 32.0294 80.166V83.406C32.0294 84.462 32.2694 85.272 32.7494 85.836C33.2414 86.388 33.9734 86.664 34.9454 86.664ZM49.047 88.356C47.583 88.356 46.413 87.942 45.537 87.114C44.673 86.274 44.241 85.014 44.241 83.334V80.274C44.241 78.63 44.673 77.382 45.537 76.53C46.413 75.678 47.583 75.252 49.047 75.252C50.523 75.252 51.693 75.678 52.557 76.53C53.433 77.382 53.871 78.63 53.871 80.274V83.334C53.871 85.014 53.433 86.274 52.557 87.114C51.693 87.942 50.523 88.356 49.047 88.356ZM49.047 86.664C50.043 86.664 50.781 86.382 51.261 85.818C51.741 85.242 51.981 84.438 51.981 83.406V80.166C51.981 79.134 51.723 78.342 51.207 77.79C50.691 77.226 49.971 76.944 49.047 76.944C48.111 76.944 47.391 77.232 46.887 77.808C46.383 78.372 46.131 79.158 46.131 80.166V83.406C46.131 84.462 46.371 85.272 46.851 85.836C47.343 86.388 48.075 86.664 49.047 86.664ZM70.2364 88.356C68.7724 88.356 67.6024 87.942 66.7264 87.114C65.8624 86.274 65.4304 85.014 65.4304 83.334V80.274C65.4304 78.63 65.8624 77.382 66.7264 76.53C67.6024 75.678 68.7724 75.252 70.2364 75.252C71.7124 75.252 72.8824 75.678 73.7464 76.53C74.6224 77.382 75.0604 78.63 75.0604 80.274V83.334C75.0604 85.014 74.6224 86.274 73.7464 87.114C72.8824 87.942 71.7124 88.356 70.2364 88.356ZM70.2364 86.664C71.2324 86.664 71.9704 86.382 72.4504 85.818C72.9304 85.242 73.1704 84.438 73.1704 83.406V80.166C73.1704 79.134 72.9124 78.342 72.3964 77.79C71.8804 77.226 71.1604 76.944 70.2364 76.944C69.3004 76.944 68.5804 77.232 68.0764 77.808C67.5724 78.372 67.3204 79.158 67.3204 80.166V83.406C67.3204 84.462 67.5604 85.272 68.0404 85.836C68.5324 86.388 69.2644 86.664 70.2364 86.664ZM84.338 88.356C82.874 88.356 81.704 87.942 80.828 87.114C79.964 86.274 79.532 85.014 79.532 83.334V80.274C79.532 78.63 79.964 77.382 80.828 76.53C81.704 75.678 82.874 75.252 84.338 75.252C85.814 75.252 86.984 75.678 87.848 76.53C88.724 77.382 89.162 78.63 89.162 80.274V83.334C89.162 85.014 88.724 86.274 87.848 87.114C86.984 87.942 85.814 88.356 84.338 88.356ZM84.338 86.664C85.334 86.664 86.072 86.382 86.552 85.818C87.032 85.242 87.272 84.438 87.272 83.406V80.166C87.272 79.134 87.014 78.342 86.498 77.79C85.982 77.226 85.262 76.944 84.338 76.944C83.402 76.944 82.682 77.232 82.178 77.808C81.674 78.372 81.422 79.158 81.422 80.166V83.406C81.422 84.462 81.662 85.272 82.142 85.836C82.634 86.388 83.366 86.664 84.338 86.664ZM98.4396 88.356C96.9756 88.356 95.8056 87.942 94.9296 87.114C94.0656 86.274 93.6336 85.014 93.6336 83.334V80.274C93.6336 78.63 94.0656 77.382 94.9296 76.53C95.8056 75.678 96.9756 75.252 98.4396 75.252C99.9156 75.252 101.086 75.678 101.95 76.53C102.826 77.382 103.264 78.63 103.264 80.274V83.334C103.264 85.014 102.826 86.274 101.95 87.114C101.086 87.942 99.9156 88.356 98.4396 88.356ZM98.4396 86.664C99.4356 86.664 100.174 86.382 100.654 85.818C101.134 85.242 101.374 84.438 101.374 83.406V80.166C101.374 79.134 101.116 78.342 100.6 77.79C100.084 77.226 99.3636 76.944 98.4396 76.944C97.5036 76.944 96.7836 77.232 96.2796 77.808C95.7756 78.372 95.5236 79.158 95.5236 80.166V83.406C95.5236 84.462 95.7636 85.272 96.2436 85.836C96.7356 86.388 97.4676 86.664 98.4396 86.664ZM112.541 88.356C111.077 88.356 109.907 87.942 109.031 87.114C108.167 86.274 107.735 85.014 107.735 83.334V80.274C107.735 78.63 108.167 77.382 109.031 76.53C109.907 75.678 111.077 75.252 112.541 75.252C114.017 75.252 115.187 75.678 116.051 76.53C116.927 77.382 117.365 78.63 117.365 80.274V83.334C117.365 85.014 116.927 86.274 116.051 87.114C115.187 87.942 114.017 88.356 112.541 88.356ZM112.541 86.664C113.537 86.664 114.275 86.382 114.755 85.818C115.235 85.242 115.475 84.438 115.475 83.406V80.166C115.475 79.134 115.217 78.342 114.701 77.79C114.185 77.226 113.465 76.944 112.541 76.944C111.605 76.944 110.885 77.232 110.381 77.808C109.877 78.372 109.625 79.158 109.625 80.166V83.406C109.625 84.462 109.865 85.272 110.345 85.836C110.837 86.388 111.569 86.664 112.541 86.664ZM133.731 88.356C132.267 88.356 131.097 87.942 130.221 87.114C129.357 86.274 128.925 85.014 128.925 83.334V80.274C128.925 78.63 129.357 77.382 130.221 76.53C131.097 75.678 132.267 75.252 133.731 75.252C135.207 75.252 136.377 75.678 137.241 76.53C138.117 77.382 138.555 78.63 138.555 80.274V83.334C138.555 85.014 138.117 86.274 137.241 87.114C136.377 87.942 135.207 88.356 133.731 88.356ZM133.731 86.664C134.727 86.664 135.465 86.382 135.945 85.818C136.425 85.242 136.665 84.438 136.665 83.406V80.166C136.665 79.134 136.407 78.342 135.891 77.79C135.375 77.226 134.655 76.944 133.731 76.944C132.795 76.944 132.075 77.232 131.571 77.808C131.067 78.372 130.815 79.158 130.815 80.166V83.406C130.815 84.462 131.055 85.272 131.535 85.836C132.027 86.388 132.759 86.664 133.731 86.664ZM147.832 88.356C146.368 88.356 145.198 87.942 144.322 87.114C143.458 86.274 143.026 85.014 143.026 83.334V80.274C143.026 78.63 143.458 77.382 144.322 76.53C145.198 75.678 146.368 75.252 147.832 75.252C149.308 75.252 150.478 75.678 151.342 76.53C152.218 77.382 152.656 78.63 152.656 80.274V83.334C152.656 85.014 152.218 86.274 151.342 87.114C150.478 87.942 149.308 88.356 147.832 88.356ZM147.832 86.664C148.828 86.664 149.566 86.382 150.046 85.818C150.526 85.242 150.766 84.438 150.766 83.406V80.166C150.766 79.134 150.508 78.342 149.992 77.79C149.476 77.226 148.756 76.944 147.832 76.944C146.896 76.944 146.176 77.232 145.672 77.808C145.168 78.372 144.916 79.158 144.916 80.166V83.406C144.916 84.462 145.156 85.272 145.636 85.836C146.128 86.388 146.86 86.664 147.832 86.664ZM161.934 88.356C160.47 88.356 159.3 87.942 158.424 87.114C157.56 86.274 157.128 85.014 157.128 83.334V80.274C157.128 78.63 157.56 77.382 158.424 76.53C159.3 75.678 160.47 75.252 161.934 75.252C163.41 75.252 164.58 75.678 165.444 76.53C166.32 77.382 166.758 78.63 166.758 80.274V83.334C166.758 85.014 166.32 86.274 165.444 87.114C164.58 87.942 163.41 88.356 161.934 88.356ZM161.934 86.664C162.93 86.664 163.668 86.382 164.148 85.818C164.628 85.242 164.868 84.438 164.868 83.406V80.166C164.868 79.134 164.61 78.342 164.094 77.79C163.578 77.226 162.858 76.944 161.934 76.944C160.998 76.944 160.278 77.232 159.774 77.808C159.27 78.372 159.018 79.158 159.018 80.166V83.406C159.018 84.462 159.258 85.272 159.738 85.836C160.23 86.388 160.962 86.664 161.934 86.664ZM176.035 88.356C174.571 88.356 173.401 87.942 172.525 87.114C171.661 86.274 171.229 85.014 171.229 83.334V80.274C171.229 78.63 171.661 77.382 172.525 76.53C173.401 75.678 174.571 75.252 176.035 75.252C177.511 75.252 178.681 75.678 179.545 76.53C180.421 77.382 180.859 78.63 180.859 80.274V83.334C180.859 85.014 180.421 86.274 179.545 87.114C178.681 87.942 177.511 88.356 176.035 88.356ZM176.035 86.664C177.031 86.664 177.769 86.382 178.249 85.818C178.729 85.242 178.969 84.438 178.969 83.406V80.166C178.969 79.134 178.711 78.342 178.195 77.79C177.679 77.226 176.959 76.944 176.035 76.944C175.099 76.944 174.379 77.232 173.875 77.808C173.371 78.372 173.119 79.158 173.119 80.166V83.406C173.119 84.462 173.359 85.272 173.839 85.836C174.331 86.388 175.063 86.664 176.035 86.664ZM197.225 88.356C195.761 88.356 194.591 87.942 193.715 87.114C192.851 86.274 192.419 85.014 192.419 83.334V80.274C192.419 78.63 192.851 77.382 193.715 76.53C194.591 75.678 195.761 75.252 197.225 75.252C198.701 75.252 199.871 75.678 200.735 76.53C201.611 77.382 202.049 78.63 202.049 80.274V83.334C202.049 85.014 201.611 86.274 200.735 87.114C199.871 87.942 198.701 88.356 197.225 88.356ZM197.225 86.664C198.221 86.664 198.959 86.382 199.439 85.818C199.919 85.242 200.159 84.438 200.159 83.406V80.166C200.159 79.134 199.901 78.342 199.385 77.79C198.869 77.226 198.149 76.944 197.225 76.944C196.289 76.944 195.569 77.232 195.065 77.808C194.561 78.372 194.309 79.158 194.309 80.166V83.406C194.309 84.462 194.549 85.272 195.029 85.836C195.521 86.388 196.253 86.664 197.225 86.664ZM211.326 88.356C209.862 88.356 208.692 87.942 207.816 87.114C206.952 86.274 206.52 85.014 206.52 83.334V80.274C206.52 78.63 206.952 77.382 207.816 76.53C208.692 75.678 209.862 75.252 211.326 75.252C212.802 75.252 213.972 75.678 214.836 76.53C215.712 77.382 216.15 78.63 216.15 80.274V83.334C216.15 85.014 215.712 86.274 214.836 87.114C213.972 87.942 212.802 88.356 211.326 88.356ZM211.326 86.664C212.322 86.664 213.06 86.382 213.54 85.818C214.02 85.242 214.26 84.438 214.26 83.406V80.166C214.26 79.134 214.002 78.342 213.486 77.79C212.97 77.226 212.25 76.944 211.326 76.944C210.39 76.944 209.67 77.232 209.166 77.808C208.662 78.372 208.41 79.158 208.41 80.166V83.406C208.41 84.462 208.65 85.272 209.13 85.836C209.622 86.388 210.354 86.664 211.326 86.664ZM225.428 88.356C223.964 88.356 222.794 87.942 221.918 87.114C221.054 86.274 220.622 85.014 220.622 83.334V80.274C220.622 78.63 221.054 77.382 221.918 76.53C222.794 75.678 223.964 75.252 225.428 75.252C226.904 75.252 228.074 75.678 228.938 76.53C229.814 77.382 230.252 78.63 230.252 80.274V83.334C230.252 85.014 229.814 86.274 228.938 87.114C228.074 87.942 226.904 88.356 225.428 88.356ZM225.428 86.664C226.424 86.664 227.162 86.382 227.642 85.818C228.122 85.242 228.362 84.438 228.362 83.406V80.166C228.362 79.134 228.104 78.342 227.588 77.79C227.072 77.226 226.352 76.944 225.428 76.944C224.492 76.944 223.772 77.232 223.268 77.808C222.764 78.372 222.512 79.158 222.512 80.166V83.406C222.512 84.462 222.752 85.272 223.232 85.836C223.724 86.388 224.456 86.664 225.428 86.664ZM239.529 88.356C238.065 88.356 236.895 87.942 236.019 87.114C235.155 86.274 234.723 85.014 234.723 83.334V80.274C234.723 78.63 235.155 77.382 236.019 76.53C236.895 75.678 238.065 75.252 239.529 75.252C241.005 75.252 242.175 75.678 243.039 76.53C243.915 77.382 244.353 78.63 244.353 80.274V83.334C244.353 85.014 243.915 86.274 243.039 87.114C242.175 87.942 241.005 88.356 239.529 88.356ZM239.529 86.664C240.525 86.664 241.263 86.382 241.743 85.818C242.223 85.242 242.463 84.438 242.463 83.406V80.166C242.463 79.134 242.205 78.342 241.689 77.79C241.173 77.226 240.453 76.944 239.529 76.944C238.593 76.944 237.873 77.232 237.369 77.808C236.865 78.372 236.613 79.158 236.613 80.166V83.406C236.613 84.462 236.853 85.272 237.333 85.836C237.825 86.388 238.557 86.664 239.529 86.664Z" fill="white"/>
<path d="M3.33129 118.23C2.70129 118.23 2.20029 118.056 1.82829 117.708C1.45629 117.354 1.27029 116.856 1.27029 116.214V115.674H2.24229V116.214C2.24229 116.55 2.33229 116.82 2.51229 117.024C2.69829 117.222 2.96529 117.321 3.31329 117.321C3.64929 117.321 3.89829 117.222 4.06029 117.024C4.22229 116.826 4.30329 116.556 4.30329 116.214V112.686H3.20529V111.804H5.97729V112.686H5.27529V116.214C5.27529 116.868 5.10429 117.369 4.76229 117.717C4.42629 118.059 3.94929 118.23 3.33129 118.23ZM7.48295 118.104L9.28295 111.804H10.9929L12.7839 118.104H11.7849L11.3709 116.619H8.90495L8.49095 118.104H7.48295ZM9.14795 115.719H11.1279L10.2099 112.407H10.0659L9.14795 115.719ZM14.8875 118.104V111.804H16.7595L18.4695 117.456H18.6135V111.804H19.5765V118.104H17.7045L15.9945 112.443H15.8505V118.104H14.8875ZM22.1404 118.104V111.804H26.1094V112.686H23.1124V114.495H25.8574V115.377H23.1124V117.222H26.1544V118.104H22.1404ZM31.3794 118.104L33.1794 111.804H34.8894L36.6804 118.104H35.6814L35.2674 116.619H32.8014L32.3874 118.104H31.3794ZM33.0444 115.719H35.0244L34.1064 112.407H33.9624L33.0444 115.719ZM38.784 118.104V111.804H41.286C41.67 111.804 42.012 111.882 42.312 112.038C42.618 112.188 42.855 112.404 43.023 112.686C43.197 112.962 43.284 113.295 43.284 113.685V113.802C43.284 114.192 43.194 114.528 43.014 114.81C42.84 115.092 42.603 115.308 42.303 115.458C42.003 115.608 41.664 115.683 41.286 115.683H39.756V118.104H38.784ZM39.756 114.801H41.187C41.529 114.801 41.802 114.711 42.006 114.531C42.21 114.351 42.312 114.105 42.312 113.793V113.703C42.312 113.385 42.21 113.136 42.006 112.956C41.802 112.776 41.529 112.686 41.187 112.686H39.756V114.801ZM45.4568 118.104V111.804H47.9588C48.3428 111.804 48.6848 111.882 48.9848 112.038C49.2908 112.188 49.5278 112.404 49.6958 112.686C49.8698 112.962 49.9568 113.295 49.9568 113.685V113.802C49.9568 114.192 49.8668 114.528 49.6868 114.81C49.5128 115.092 49.2758 115.308 48.9758 115.458C48.6758 115.608 48.3368 115.683 47.9588 115.683H46.4288V118.104H45.4568ZM46.4288 114.801H47.8598C48.2018 114.801 48.4748 114.711 48.6788 114.531C48.8828 114.351 48.9848 114.105 48.9848 113.793V113.703C48.9848 113.385 48.8828 113.136 48.6788 112.956C48.4748 112.776 48.2018 112.686 47.8598 112.686H46.4288V114.801ZM52.1297 118.104V111.804H53.1017V117.222H56.1347V118.104H52.1297ZM58.2752 118.104V111.804H62.2442V112.686H59.2472V114.495H61.9922V115.377H59.2472V117.222H62.2892V118.104H58.2752ZM66.6945 118.23C66.2205 118.23 65.8005 118.146 65.4345 117.978C65.0685 117.81 64.7805 117.564 64.5705 117.24C64.3665 116.91 64.2645 116.511 64.2645 116.043V115.818H65.2275V116.043C65.2275 116.487 65.3595 116.82 65.6235 117.042C65.8935 117.264 66.2505 117.375 66.6945 117.375C67.1445 117.375 67.4835 117.282 67.7115 117.096C67.9395 116.904 68.0535 116.658 68.0535 116.358C68.0535 116.16 67.9995 115.998 67.8915 115.872C67.7835 115.746 67.6305 115.647 67.4325 115.575C67.2345 115.497 66.9975 115.425 66.7215 115.359L66.3885 115.278C65.9865 115.182 65.6355 115.065 65.3355 114.927C65.0415 114.783 64.8135 114.594 64.6515 114.36C64.4895 114.126 64.4085 113.826 64.4085 113.46C64.4085 113.088 64.4985 112.77 64.6785 112.506C64.8645 112.242 65.1195 112.038 65.4435 111.894C65.7675 111.75 66.1485 111.678 66.5865 111.678C67.0245 111.678 67.4145 111.753 67.7565 111.903C68.1045 112.053 68.3775 112.275 68.5755 112.569C68.7735 112.863 68.8725 113.232 68.8725 113.676V114H67.9095V113.676C67.9095 113.406 67.8525 113.187 67.7385 113.019C67.6305 112.851 67.4775 112.728 67.2795 112.65C67.0815 112.572 66.8505 112.533 66.5865 112.533C66.2025 112.533 65.9025 112.614 65.6865 112.776C65.4765 112.932 65.3715 113.151 65.3715 113.433C65.3715 113.625 65.4165 113.784 65.5065 113.91C65.6025 114.03 65.7405 114.129 65.9205 114.207C66.1005 114.285 66.3255 114.354 66.5955 114.414L66.9285 114.495C67.3365 114.585 67.6965 114.702 68.0085 114.846C68.3205 114.984 68.5665 115.173 68.7465 115.413C68.9265 115.653 69.0165 115.962 69.0165 116.34C69.0165 116.718 68.9205 117.048 68.7285 117.33C68.5425 117.612 68.2755 117.834 67.9275 117.996C67.5795 118.152 67.1685 118.23 66.6945 118.23ZM71.2869 118.104V111.804H75.2559V112.686H72.2589V114.495H75.0039V115.377H72.2589V117.222H75.3009V118.104H71.2869ZM77.5642 118.104V111.804H81.5332V112.686H78.5362V114.495H81.2812V115.377H78.5362V117.222H81.5782V118.104H77.5642ZM83.6076 118.104V117.24H84.4536V112.668H83.6076V111.804H86.1276C86.9676 111.804 87.6096 112.017 88.0536 112.443C88.5036 112.869 88.7286 113.511 88.7286 114.369V115.548C88.7286 116.406 88.5036 117.048 88.0536 117.474C87.6096 117.894 86.9676 118.104 86.1276 118.104H83.6076ZM85.4346 117.222H86.1366C86.6826 117.222 87.0876 117.084 87.3516 116.808C87.6156 116.532 87.7476 116.121 87.7476 115.575V114.333C87.7476 113.781 87.6156 113.37 87.3516 113.1C87.0876 112.83 86.6826 112.695 86.1366 112.695H85.4346V117.222Z" fill="white"/>
<path d="M217.338 118.23C216.606 118.23 216.021 118.023 215.583 117.609C215.151 117.189 214.935 116.559 214.935 115.719V114.189C214.935 113.367 215.151 112.743 215.583 112.317C216.021 111.891 216.606 111.678 217.338 111.678C218.076 111.678 218.661 111.891 219.093 112.317C219.531 112.743 219.75 113.367 219.75 114.189V115.719C219.75 116.559 219.531 117.189 219.093 117.609C218.661 118.023 218.076 118.23 217.338 118.23ZM217.338 117.384C217.836 117.384 218.205 117.243 218.445 116.961C218.685 116.673 218.805 116.271 218.805 115.755V114.135C218.805 113.619 218.676 113.223 218.418 112.947C218.16 112.665 217.8 112.524 217.338 112.524C216.87 112.524 216.51 112.668 216.258 112.956C216.006 113.238 215.88 113.631 215.88 114.135V115.755C215.88 116.283 216 116.688 216.24 116.97C216.486 117.246 216.852 117.384 217.338 117.384ZM224.389 118.23C223.657 118.23 223.072 118.023 222.634 117.609C222.202 117.189 221.986 116.559 221.986 115.719V114.189C221.986 113.367 222.202 112.743 222.634 112.317C223.072 111.891 223.657 111.678 224.389 111.678C225.127 111.678 225.712 111.891 226.144 112.317C226.582 112.743 226.801 113.367 226.801 114.189V115.719C226.801 116.559 226.582 117.189 226.144 117.609C225.712 118.023 225.127 118.23 224.389 118.23ZM224.389 117.384C224.887 117.384 225.256 117.243 225.496 116.961C225.736 116.673 225.856 116.271 225.856 115.755V114.135C225.856 113.619 225.727 113.223 225.469 112.947C225.211 112.665 224.851 112.524 224.389 112.524C223.921 112.524 223.561 112.668 223.309 112.956C223.057 113.238 222.931 113.631 222.931 114.135V115.755C222.931 116.283 223.051 116.688 223.291 116.97C223.537 117.246 223.903 117.384 224.389 117.384ZM228.47 119.904L231.116 111.804H232.043L229.397 119.904H228.47ZM236.1 118.23C235.368 118.23 234.783 118.023 234.345 117.609C233.913 117.189 233.697 116.559 233.697 115.719V114.189C233.697 113.367 233.913 112.743 234.345 112.317C234.783 111.891 235.368 111.678 236.1 111.678C236.838 111.678 237.423 111.891 237.855 112.317C238.293 112.743 238.512 113.367 238.512 114.189V115.719C238.512 116.559 238.293 117.189 237.855 117.609C237.423 118.023 236.838 118.23 236.1 118.23ZM236.1 117.384C236.598 117.384 236.967 117.243 237.207 116.961C237.447 116.673 237.567 116.271 237.567 115.755V114.135C237.567 113.619 237.438 113.223 237.18 112.947C236.922 112.665 236.562 112.524 236.1 112.524C235.632 112.524 235.272 112.668 235.02 112.956C234.768 113.238 234.642 113.631 234.642 114.135V115.755C234.642 116.283 234.762 116.688 235.002 116.97C235.248 117.246 235.614 117.384 236.1 117.384ZM243.151 118.23C242.419 118.23 241.834 118.023 241.396 117.609C240.964 117.189 240.748 116.559 240.748 115.719V114.189C240.748 113.367 240.964 112.743 241.396 112.317C241.834 111.891 242.419 111.678 243.151 111.678C243.889 111.678 244.474 111.891 244.906 112.317C245.344 112.743 245.563 113.367 245.563 114.189V115.719C245.563 116.559 245.344 117.189 244.906 117.609C244.474 118.023 243.889 118.23 243.151 118.23ZM243.151 117.384C243.649 117.384 244.018 117.243 244.258 116.961C244.498 116.673 244.618 116.271 244.618 115.755V114.135C244.618 113.619 244.489 113.223 244.231 112.947C243.973 112.665 243.613 112.524 243.151 112.524C242.683 112.524 242.323 112.668 242.071 112.956C241.819 113.238 241.693 113.631 241.693 114.135V115.755C241.693 116.283 241.813 116.688 242.053 116.97C242.299 117.246 242.665 117.384 243.151 117.384Z" fill="white"/>
</svg>
